<svg viewBox="0 0 660 370" xmlns="http://www.w3.org/2000/svg" role="img" aria-label="Central library members: hours in library buildings against items borrowed, 35 members" font-family="Public Sans, system-ui, sans-serif">
<style>
  .ink   { fill: #15201f; }
  .ink2  { fill: #4a5654; }
  .ink3  { fill: #6f7b79; }
  .axis  { stroke: #c3c9c6; }
  .grid  { stroke: #dcdfdd; }
  .gap   { stroke: #ffffff; }
  .surf  { fill: #ffffff; }
  @media (prefers-color-scheme: dark) {
    .ink  { fill: #e9edeb; }
    .ink2 { fill: #a5b0ad; }
    .ink3 { fill: #7e8a87; }
    .axis { stroke: #3a4644; }
    .grid { stroke: #2a3533; }
    .gap  { stroke: #182120; }
    .surf { fill: #182120; }
  }

  .s0 { fill: #2a78d6; }
  .k0 { stroke: #2a78d6; }
  .s1 { fill: #eb6834; }
  .k1 { stroke: #eb6834; }
  @media (prefers-color-scheme: dark) {
    .s0 { fill: #3987e5; }
    .k0 { stroke: #3987e5; }
    .s1 { fill: #d95926; }
    .k1 { stroke: #d95926; }
  }
</style>
<line class="grid" x1="70.0" y1="20" x2="70.0" y2="320" stroke-width="1" stroke="#dcdfdd" fill="none"/>
<text class="ink3" x="70.0" y="336" font-size="11.5" text-anchor="middle" fill="#6f7b79">10</text>
<line class="grid" x1="163.3" y1="20" x2="163.3" y2="320" stroke-width="1" stroke="#dcdfdd" fill="none"/>
<text class="ink3" x="163.3" y="336" font-size="11.5" text-anchor="middle" fill="#6f7b79">20</text>
<line class="grid" x1="256.7" y1="20" x2="256.7" y2="320" stroke-width="1" stroke="#dcdfdd" fill="none"/>
<text class="ink3" x="256.7" y="336" font-size="11.5" text-anchor="middle" fill="#6f7b79">30</text>
<line class="grid" x1="350.0" y1="20" x2="350.0" y2="320" stroke-width="1" stroke="#dcdfdd" fill="none"/>
<text class="ink3" x="350.0" y="336" font-size="11.5" text-anchor="middle" fill="#6f7b79">40</text>
<line class="grid" x1="443.3" y1="20" x2="443.3" y2="320" stroke-width="1" stroke="#dcdfdd" fill="none"/>
<text class="ink3" x="443.3" y="336" font-size="11.5" text-anchor="middle" fill="#6f7b79">50</text>
<line class="grid" x1="536.7" y1="20" x2="536.7" y2="320" stroke-width="1" stroke="#dcdfdd" fill="none"/>
<text class="ink3" x="536.7" y="336" font-size="11.5" text-anchor="middle" fill="#6f7b79">60</text>
<line class="grid" x1="630.0" y1="20" x2="630.0" y2="320" stroke-width="1" stroke="#dcdfdd" fill="none"/>
<text class="ink3" x="630.0" y="336" font-size="11.5" text-anchor="middle" fill="#6f7b79">70</text>
<line class="grid" x1="70" y1="320.0" x2="630" y2="320.0" stroke-width="1" stroke="#dcdfdd" fill="none"/>
<text class="ink3" x="63" y="324.0" font-size="11.5" text-anchor="end" fill="#6f7b79">0</text>
<line class="grid" x1="70" y1="282.5" x2="630" y2="282.5" stroke-width="1" stroke="#dcdfdd" fill="none"/>
<text class="ink3" x="63" y="286.5" font-size="11.5" text-anchor="end" fill="#6f7b79">5</text>
<line class="grid" x1="70" y1="245.0" x2="630" y2="245.0" stroke-width="1" stroke="#dcdfdd" fill="none"/>
<text class="ink3" x="63" y="249.0" font-size="11.5" text-anchor="end" fill="#6f7b79">10</text>
<line class="grid" x1="70" y1="207.5" x2="630" y2="207.5" stroke-width="1" stroke="#dcdfdd" fill="none"/>
<text class="ink3" x="63" y="211.5" font-size="11.5" text-anchor="end" fill="#6f7b79">15</text>
<line class="grid" x1="70" y1="170.0" x2="630" y2="170.0" stroke-width="1" stroke="#dcdfdd" fill="none"/>
<text class="ink3" x="63" y="174.0" font-size="11.5" text-anchor="end" fill="#6f7b79">20</text>
<line class="grid" x1="70" y1="132.5" x2="630" y2="132.5" stroke-width="1" stroke="#dcdfdd" fill="none"/>
<text class="ink3" x="63" y="136.5" font-size="11.5" text-anchor="end" fill="#6f7b79">25</text>
<line class="grid" x1="70" y1="95.0" x2="630" y2="95.0" stroke-width="1" stroke="#dcdfdd" fill="none"/>
<text class="ink3" x="63" y="99.0" font-size="11.5" text-anchor="end" fill="#6f7b79">30</text>
<line class="grid" x1="70" y1="57.5" x2="630" y2="57.5" stroke-width="1" stroke="#dcdfdd" fill="none"/>
<text class="ink3" x="63" y="61.5" font-size="11.5" text-anchor="end" fill="#6f7b79">35</text>
<line class="grid" x1="70" y1="20.0" x2="630" y2="20.0" stroke-width="1" stroke="#dcdfdd" fill="none"/>
<text class="ink3" x="63" y="24.0" font-size="11.5" text-anchor="end" fill="#6f7b79">40</text>
<line class="axis" x1="70" y1="320" x2="630" y2="320" stroke-width="1.5" stroke="#c3c9c6" fill="none"/>
<line class="axis" x1="70" y1="20" x2="70" y2="320" stroke-width="1.5" stroke="#c3c9c6" fill="none"/>
<text class="ink2" x="350.0" y="354" font-size="12" text-anchor="middle" fill="#4a5654">Hours spent in library buildings last year</text>
<text class="ink2" x="30" y="170.0" font-size="12" text-anchor="middle" transform="rotate(-90 30 170.0)" fill="#4a5654">Items borrowed last year</text>
<circle class="s0 gap" cx="126.0" cy="290.0" r="4.6" stroke-width="1.2" fill="#2a78d6" stroke="#ffffff"/>
<circle class="s0 gap" cx="172.7" cy="252.5" r="4.6" stroke-width="1.2" fill="#2a78d6" stroke="#ffffff"/>
<circle class="s0 gap" cx="200.7" cy="222.5" r="4.6" stroke-width="1.2" fill="#2a78d6" stroke="#ffffff"/>
<circle class="s0 gap" cx="219.3" cy="245.0" r="4.6" stroke-width="1.2" fill="#2a78d6" stroke="#ffffff"/>
<circle class="s0 gap" cx="238.0" cy="252.5" r="4.6" stroke-width="1.2" fill="#2a78d6" stroke="#ffffff"/>
<circle class="s0 gap" cx="247.3" cy="237.5" r="4.6" stroke-width="1.2" fill="#2a78d6" stroke="#ffffff"/>
<circle class="s0 gap" cx="256.7" cy="222.5" r="4.6" stroke-width="1.2" fill="#2a78d6" stroke="#ffffff"/>
<circle class="s0 gap" cx="266.0" cy="222.5" r="4.6" stroke-width="1.2" fill="#2a78d6" stroke="#ffffff"/>
<circle class="s0 gap" cx="275.3" cy="200.0" r="4.6" stroke-width="1.2" fill="#2a78d6" stroke="#ffffff"/>
<circle class="s0 gap" cx="284.7" cy="207.5" r="4.6" stroke-width="1.2" fill="#2a78d6" stroke="#ffffff"/>
<circle class="s0 gap" cx="294.0" cy="215.0" r="4.6" stroke-width="1.2" fill="#2a78d6" stroke="#ffffff"/>
<circle class="s0 gap" cx="303.3" cy="200.0" r="4.6" stroke-width="1.2" fill="#2a78d6" stroke="#ffffff"/>
<circle class="s0 gap" cx="312.7" cy="185.0" r="4.6" stroke-width="1.2" fill="#2a78d6" stroke="#ffffff"/>
<circle class="s0 gap" cx="322.0" cy="177.5" r="4.6" stroke-width="1.2" fill="#2a78d6" stroke="#ffffff"/>
<circle class="s0 gap" cx="331.3" cy="162.5" r="4.6" stroke-width="1.2" fill="#2a78d6" stroke="#ffffff"/>
<circle class="s0 gap" cx="331.3" cy="147.5" r="4.6" stroke-width="1.2" fill="#2a78d6" stroke="#ffffff"/>
<circle class="s0 gap" cx="340.7" cy="162.5" r="4.6" stroke-width="1.2" fill="#2a78d6" stroke="#ffffff"/>
<circle class="s0 gap" cx="350.0" cy="147.5" r="4.6" stroke-width="1.2" fill="#2a78d6" stroke="#ffffff"/>
<circle class="s0 gap" cx="359.3" cy="162.5" r="4.6" stroke-width="1.2" fill="#2a78d6" stroke="#ffffff"/>
<circle class="s0 gap" cx="368.7" cy="185.0" r="4.6" stroke-width="1.2" fill="#2a78d6" stroke="#ffffff"/>
<circle class="s0 gap" cx="368.7" cy="147.5" r="4.6" stroke-width="1.2" fill="#2a78d6" stroke="#ffffff"/>
<circle class="s0 gap" cx="378.0" cy="147.5" r="4.6" stroke-width="1.2" fill="#2a78d6" stroke="#ffffff"/>
<circle class="s0 gap" cx="387.3" cy="162.5" r="4.6" stroke-width="1.2" fill="#2a78d6" stroke="#ffffff"/>
<circle class="s0 gap" cx="396.7" cy="140.0" r="4.6" stroke-width="1.2" fill="#2a78d6" stroke="#ffffff"/>
<circle class="s0 gap" cx="406.0" cy="132.5" r="4.6" stroke-width="1.2" fill="#2a78d6" stroke="#ffffff"/>
<circle class="s0 gap" cx="415.3" cy="147.5" r="4.6" stroke-width="1.2" fill="#2a78d6" stroke="#ffffff"/>
<circle class="s0 gap" cx="424.7" cy="140.0" r="4.6" stroke-width="1.2" fill="#2a78d6" stroke="#ffffff"/>
<circle class="s0 gap" cx="434.0" cy="275.0" r="4.6" stroke-width="1.2" fill="#2a78d6" stroke="#ffffff"/>
<circle class="s0 gap" cx="443.3" cy="305.0" r="4.6" stroke-width="1.2" fill="#2a78d6" stroke="#ffffff"/>
<circle class="s0 gap" cx="452.7" cy="275.0" r="4.6" stroke-width="1.2" fill="#2a78d6" stroke="#ffffff"/>
<circle class="s0 gap" cx="462.0" cy="297.5" r="4.6" stroke-width="1.2" fill="#2a78d6" stroke="#ffffff"/>
<circle class="s0 gap" cx="480.7" cy="72.5" r="4.6" stroke-width="1.2" fill="#2a78d6" stroke="#ffffff"/>
<circle class="s0 gap" cx="499.3" cy="305.0" r="4.6" stroke-width="1.2" fill="#2a78d6" stroke="#ffffff"/>
<circle class="s0 gap" cx="527.3" cy="42.5" r="4.6" stroke-width="1.2" fill="#2a78d6" stroke="#ffffff"/>
<circle class="s0 gap" cx="574.0" cy="72.5" r="4.6" stroke-width="1.2" fill="#2a78d6" stroke="#ffffff"/>
</svg>
