<svg viewBox="0 0 700 270" xmlns="http://www.w3.org/2000/svg" role="img" aria-label="Skewed right versus skewed left, tails labelled" font-family="Public Sans, system-ui, sans-serif">
<style>
  .ink   { fill: #15201f; }
  .ink2  { fill: #4a5654; }
  .ink3  { fill: #6f7b79; }
  .axis  { stroke: #c3c9c6; }
  .grid  { stroke: #dcdfdd; }
  .gap   { stroke: #ffffff; }
  .surf  { fill: #ffffff; }
  @media (prefers-color-scheme: dark) {
    .ink  { fill: #e9edeb; }
    .ink2 { fill: #a5b0ad; }
    .ink3 { fill: #7e8a87; }
    .axis { stroke: #3a4644; }
    .grid { stroke: #2a3533; }
    .gap  { stroke: #182120; }
    .surf { fill: #182120; }
  }

  .s0 { fill: #2a78d6; }
  @media (prefers-color-scheme: dark) {
    .s0 { fill: #3987e5; }
  }
</style>
<rect class="s0" x="48.8" y="164.0" width="28.9" height="22.0" rx="3" fill="#2a78d6"/>
<rect class="s0" x="79.2" y="87.0" width="28.9" height="99.0" rx="3" fill="#2a78d6"/>
<rect class="s0" x="109.6" y="54.0" width="28.9" height="132.0" rx="3" fill="#2a78d6"/>
<rect class="s0" x="140.1" y="98.0" width="28.9" height="88.0" rx="3" fill="#2a78d6"/>
<rect class="s0" x="170.5" y="131.0" width="28.9" height="55.0" rx="3" fill="#2a78d6"/>
<rect class="s0" x="201.0" y="153.0" width="28.9" height="33.0" rx="3" fill="#2a78d6"/>
<rect class="s0" x="231.4" y="164.0" width="28.9" height="22.0" rx="3" fill="#2a78d6"/>
<rect class="s0" x="261.9" y="175.0" width="28.9" height="11.0" rx="3" fill="#2a78d6"/>
<rect class="s0" x="292.3" y="175.0" width="28.9" height="11.0" rx="3" fill="#2a78d6"/>
<line class="axis" x1="48" y1="186" x2="322" y2="186" stroke-width="1.5" stroke="#c3c9c6" fill="none"/>
<text class="ink" x="48" y="32" font-size="15" font-weight="700" fill="#15201f">Skewed right</text>
<line class="axis" x1="174.0" y1="212" x2="318.0" y2="212" stroke-width="1.5" stroke="#c3c9c6" fill="none"/>
<path class="ink2" d="M 318 212 l -9 -5 l 0 10 Z" fill="#4a5654"/>
<text class="ink2" x="246.0" y="232" font-size="12.5" text-anchor="middle" fill="#4a5654">long tail points right</text>
<text class="ink3" x="48" y="50" font-size="12" fill="#6f7b79">bulk on the left</text>
<rect class="s0" x="398.8" y="175.0" width="28.9" height="11.0" rx="3" fill="#2a78d6"/>
<rect class="s0" x="429.2" y="175.0" width="28.9" height="11.0" rx="3" fill="#2a78d6"/>
<rect class="s0" x="459.6" y="164.0" width="28.9" height="22.0" rx="3" fill="#2a78d6"/>
<rect class="s0" x="490.1" y="153.0" width="28.9" height="33.0" rx="3" fill="#2a78d6"/>
<rect class="s0" x="520.5" y="131.0" width="28.9" height="55.0" rx="3" fill="#2a78d6"/>
<rect class="s0" x="551.0" y="98.0" width="28.9" height="88.0" rx="3" fill="#2a78d6"/>
<rect class="s0" x="581.4" y="54.0" width="28.9" height="132.0" rx="3" fill="#2a78d6"/>
<rect class="s0" x="611.9" y="87.0" width="28.9" height="99.0" rx="3" fill="#2a78d6"/>
<rect class="s0" x="642.3" y="164.0" width="28.9" height="22.0" rx="3" fill="#2a78d6"/>
<line class="axis" x1="398" y1="186" x2="672" y2="186" stroke-width="1.5" stroke="#c3c9c6" fill="none"/>
<text class="ink" x="398" y="32" font-size="15" font-weight="700" fill="#15201f">Skewed left</text>
<line class="axis" x1="546.0" y1="212" x2="402.0" y2="212" stroke-width="1.5" stroke="#c3c9c6" fill="none"/>
<path class="ink2" d="M 402 212 l 9 -5 l 0 10 Z" fill="#4a5654"/>
<text class="ink2" x="474.0" y="232" font-size="12.5" text-anchor="middle" fill="#4a5654">long tail points left</text>
<text class="ink3" x="398" y="50" font-size="12" fill="#6f7b79">bulk on the right</text>
</svg>
