<svg viewBox="0 0 640 400" xmlns="http://www.w3.org/2000/svg" role="img" aria-label="Scatterplot of price against age for 15 used cars" font-family="Public Sans, system-ui, sans-serif">
<style>
  .ink   { fill: #15201f; }
  .ink2  { fill: #4a5654; }
  .ink3  { fill: #6f7b79; }
  .axis  { stroke: #c3c9c6; }
  .grid  { stroke: #dcdfdd; }
  .gap   { stroke: #ffffff; }
  @media (prefers-color-scheme: dark) {
    .ink  { fill: #e9edeb; }
    .ink2 { fill: #a5b0ad; }
    .ink3 { fill: #7e8a87; }
    .axis { stroke: #3a4644; }
    .grid { stroke: #2a3533; }
    .gap  { stroke: #182120; }
  }

  .s0 { fill: #2a78d6; }
  .s1 { fill: #eb6834; }
  @media (prefers-color-scheme: dark) {
    .s0 { fill: #3987e5; }
    .s1 { fill: #d95926; }
  }
</style>
<line class="grid" x1="80.0" y1="24.0" x2="80.0" y2="330.0" stroke-width="1" stroke="#dcdfdd" fill="none"/>
<text class="ink3" x="80.0" y="347.0" font-size="11.5" text-anchor="middle" fill="#6f7b79">0</text>
<line class="grid" x1="115.3" y1="24.0" x2="115.3" y2="330.0" stroke-width="1" stroke="#dcdfdd" fill="none"/>
<text class="ink3" x="115.3" y="347.0" font-size="11.5" text-anchor="middle" fill="#6f7b79">1</text>
<line class="grid" x1="150.7" y1="24.0" x2="150.7" y2="330.0" stroke-width="1" stroke="#dcdfdd" fill="none"/>
<text class="ink3" x="150.7" y="347.0" font-size="11.5" text-anchor="middle" fill="#6f7b79">2</text>
<line class="grid" x1="186.0" y1="24.0" x2="186.0" y2="330.0" stroke-width="1" stroke="#dcdfdd" fill="none"/>
<text class="ink3" x="186.0" y="347.0" font-size="11.5" text-anchor="middle" fill="#6f7b79">3</text>
<line class="grid" x1="221.3" y1="24.0" x2="221.3" y2="330.0" stroke-width="1" stroke="#dcdfdd" fill="none"/>
<text class="ink3" x="221.3" y="347.0" font-size="11.5" text-anchor="middle" fill="#6f7b79">4</text>
<line class="grid" x1="256.7" y1="24.0" x2="256.7" y2="330.0" stroke-width="1" stroke="#dcdfdd" fill="none"/>
<text class="ink3" x="256.7" y="347.0" font-size="11.5" text-anchor="middle" fill="#6f7b79">5</text>
<line class="grid" x1="292.0" y1="24.0" x2="292.0" y2="330.0" stroke-width="1" stroke="#dcdfdd" fill="none"/>
<text class="ink3" x="292.0" y="347.0" font-size="11.5" text-anchor="middle" fill="#6f7b79">6</text>
<line class="grid" x1="327.3" y1="24.0" x2="327.3" y2="330.0" stroke-width="1" stroke="#dcdfdd" fill="none"/>
<text class="ink3" x="327.3" y="347.0" font-size="11.5" text-anchor="middle" fill="#6f7b79">7</text>
<line class="grid" x1="362.7" y1="24.0" x2="362.7" y2="330.0" stroke-width="1" stroke="#dcdfdd" fill="none"/>
<text class="ink3" x="362.7" y="347.0" font-size="11.5" text-anchor="middle" fill="#6f7b79">8</text>
<line class="grid" x1="398.0" y1="24.0" x2="398.0" y2="330.0" stroke-width="1" stroke="#dcdfdd" fill="none"/>
<text class="ink3" x="398.0" y="347.0" font-size="11.5" text-anchor="middle" fill="#6f7b79">9</text>
<line class="grid" x1="433.3" y1="24.0" x2="433.3" y2="330.0" stroke-width="1" stroke="#dcdfdd" fill="none"/>
<text class="ink3" x="433.3" y="347.0" font-size="11.5" text-anchor="middle" fill="#6f7b79">10</text>
<line class="grid" x1="468.7" y1="24.0" x2="468.7" y2="330.0" stroke-width="1" stroke="#dcdfdd" fill="none"/>
<text class="ink3" x="468.7" y="347.0" font-size="11.5" text-anchor="middle" fill="#6f7b79">11</text>
<line class="grid" x1="504.0" y1="24.0" x2="504.0" y2="330.0" stroke-width="1" stroke="#dcdfdd" fill="none"/>
<text class="ink3" x="504.0" y="347.0" font-size="11.5" text-anchor="middle" fill="#6f7b79">12</text>
<line class="grid" x1="539.3" y1="24.0" x2="539.3" y2="330.0" stroke-width="1" stroke="#dcdfdd" fill="none"/>
<text class="ink3" x="539.3" y="347.0" font-size="11.5" text-anchor="middle" fill="#6f7b79">13</text>
<line class="grid" x1="574.7" y1="24.0" x2="574.7" y2="330.0" stroke-width="1" stroke="#dcdfdd" fill="none"/>
<text class="ink3" x="574.7" y="347.0" font-size="11.5" text-anchor="middle" fill="#6f7b79">14</text>
<line class="grid" x1="610.0" y1="24.0" x2="610.0" y2="330.0" stroke-width="1" stroke="#dcdfdd" fill="none"/>
<text class="ink3" x="610.0" y="347.0" font-size="11.5" text-anchor="middle" fill="#6f7b79">15</text>
<line class="grid" x1="80.0" y1="330.0" x2="610.0" y2="330.0" stroke-width="1" stroke="#dcdfdd" fill="none"/>
<text class="ink3" x="73.0" y="334.0" font-size="11.5" text-anchor="end" fill="#6f7b79">0</text>
<line class="grid" x1="80.0" y1="279.0" x2="610.0" y2="279.0" stroke-width="1" stroke="#dcdfdd" fill="none"/>
<text class="ink3" x="73.0" y="283.0" font-size="11.5" text-anchor="end" fill="#6f7b79">4</text>
<line class="grid" x1="80.0" y1="228.0" x2="610.0" y2="228.0" stroke-width="1" stroke="#dcdfdd" fill="none"/>
<text class="ink3" x="73.0" y="232.0" font-size="11.5" text-anchor="end" fill="#6f7b79">8</text>
<line class="grid" x1="80.0" y1="177.0" x2="610.0" y2="177.0" stroke-width="1" stroke="#dcdfdd" fill="none"/>
<text class="ink3" x="73.0" y="181.0" font-size="11.5" text-anchor="end" fill="#6f7b79">12</text>
<line class="grid" x1="80.0" y1="126.0" x2="610.0" y2="126.0" stroke-width="1" stroke="#dcdfdd" fill="none"/>
<text class="ink3" x="73.0" y="130.0" font-size="11.5" text-anchor="end" fill="#6f7b79">16</text>
<line class="grid" x1="80.0" y1="75.0" x2="610.0" y2="75.0" stroke-width="1" stroke="#dcdfdd" fill="none"/>
<text class="ink3" x="73.0" y="79.0" font-size="11.5" text-anchor="end" fill="#6f7b79">20</text>
<line class="grid" x1="80.0" y1="24.0" x2="610.0" y2="24.0" stroke-width="1" stroke="#dcdfdd" fill="none"/>
<text class="ink3" x="73.0" y="28.0" font-size="11.5" text-anchor="end" fill="#6f7b79">24</text>
<line class="axis" x1="80.0" y1="330.0" x2="610.0" y2="330.0" stroke-width="1.5" stroke="#c3c9c6" fill="none"/>
<line class="axis" x1="80.0" y1="24.0" x2="80.0" y2="330.0" stroke-width="1.5" stroke="#c3c9c6" fill="none"/>
<circle class="s0 gap" cx="115.3" cy="55.9" r="5" stroke-width="1.2" fill="#2a78d6" stroke="#ffffff"/>
<circle class="s0 gap" cx="150.7" cy="75.0" r="5" stroke-width="1.2" fill="#2a78d6" stroke="#ffffff"/>
<circle class="s0 gap" cx="150.7" cy="85.2" r="5" stroke-width="1.2" fill="#2a78d6" stroke="#ffffff"/>
<circle class="s0 gap" cx="186.0" cy="95.4" r="5" stroke-width="1.2" fill="#2a78d6" stroke="#ffffff"/>
<circle class="s0 gap" cx="186.0" cy="253.5" r="5" stroke-width="1.2" fill="#2a78d6" stroke="#ffffff"/>
<circle class="s0 gap" cx="221.3" cy="112.0" r="5" stroke-width="1.2" fill="#2a78d6" stroke="#ffffff"/>
<circle class="s0 gap" cx="256.7" cy="138.8" r="5" stroke-width="1.2" fill="#2a78d6" stroke="#ffffff"/>
<circle class="s0 gap" cx="256.7" cy="123.5" r="5" stroke-width="1.2" fill="#2a78d6" stroke="#ffffff"/>
<circle class="s0 gap" cx="292.0" cy="154.0" r="5" stroke-width="1.2" fill="#2a78d6" stroke="#ffffff"/>
<circle class="s0 gap" cx="327.3" cy="175.7" r="5" stroke-width="1.2" fill="#2a78d6" stroke="#ffffff"/>
<circle class="s0 gap" cx="362.7" cy="189.8" r="5" stroke-width="1.2" fill="#2a78d6" stroke="#ffffff"/>
<circle class="s0 gap" cx="398.0" cy="212.7" r="5" stroke-width="1.2" fill="#2a78d6" stroke="#ffffff"/>
<circle class="s0 gap" cx="433.3" cy="226.7" r="5" stroke-width="1.2" fill="#2a78d6" stroke="#ffffff"/>
<circle class="s0 gap" cx="468.7" cy="249.7" r="5" stroke-width="1.2" fill="#2a78d6" stroke="#ffffff"/>
<circle class="s0 gap" cx="574.7" cy="299.4" r="5" stroke-width="1.2" fill="#2a78d6" stroke="#ffffff"/>
<text class="ink2" x="345.0" y="370.0" font-size="12.5" text-anchor="middle" fill="#4a5654">Age (years)</text>
<text class="ink2" x="36.0" y="177.0" font-size="12.5" text-anchor="middle" transform="rotate(-90 36.0 177.0)" fill="#4a5654">Price (£ thousands)</text>
</svg>
